# xmcd CD database file
#
# Track frame offsets:
#	150
#	13536
#	31833
#	46806
#	61882
#	77835
#	97922
#	111966
#	127677
#	138965
#	152252
#	165242
#	177851
#	194205
#	207917
#	221454
#
# Disc length: 3116 seconds
#
# Revision: 0
# Processed by: cddbd v1.5.2PL0 Copyright (c) Steve Scherf et al.
# Submitted via: CDex 1.51
#
DISCID=c30c2a10
DTITLE=Tommy Dorsey - The Discovery of Jazz
DYEAR=2004
DGENRE=Jazz
TTITLE0=Birmingham Bounce
TTITLE1=Swing Low, Sweet Chariot
TTITLE2=Blue Skies
TTITLE3=Bingo, Bango, Boffo
TTITLE4=The Continental
TTITLE5=I'm Getting Sentimental Over You
TTITLE6=Song of India
TTITLE7=Liebestraum
TTITLE8=That Foolish Feeling
TTITLE9=How Are Things in Glocca Morra?
TTITLE10=I Get a Kick Out Of You
TTITLE11=At Sundown
TTITLE12=Alone
TTITLE13=Well Git It
TTITLE14=Summertime
TTITLE15=Keepin' Out Of Mischief Now
EXTD=YEAR: 2004
EXTT0=
EXTT1=
EXTT2=
EXTT3=
EXTT4=
EXTT5=
EXTT6=
EXTT7=
EXTT8=
EXTT9=
EXTT10=
EXTT11=
EXTT12=
EXTT13=
EXTT14=
EXTT15=
PLAYORDER=
